<?xml version="1.0" encoding="utf-8"?>
<!-- created with dmn-js / http://bpmn.io -->
<!DOCTYPE svg PUBLIC "-//W3C//DTD SVG 1.1//EN" "http://www.w3.org/Graphics/SVG/1.1/DTD/svg11.dtd">
<svg xmlns="http://www.w3.org/2000/svg" xmlns:xlink="http://www.w3.org/1999/xlink" width="879" height="422" viewBox="116 75 879 422" version="1.1"><defs><marker id="association-start" viewBox="0 0 20 20" refX="1" refY="10" markerWidth="10" markerHeight="10" orient="auto"><path d="M 11 5 L 1 10 L 11 15" style="stroke-width: 1.5px; stroke-linecap: round; stroke-dasharray: 10000, 1; fill: none; stroke: black;"></path></marker><marker id="association-end" viewBox="0 0 20 20" refX="12" refY="10" markerWidth="10" markerHeight="10" orient="auto"><path d="M 1 5 L 11 10 L 1 15" style="stroke-width: 1.5px; stroke-linecap: round; stroke-dasharray: 10000, 1; fill: none; stroke: black;"></path></marker><marker id="information-requirement-end" viewBox="0 0 20 20" refX="11" refY="10" markerWidth="20" markerHeight="20" orient="auto"><path d="M 1 5 L 11 10 L 1 15 Z" style="stroke-width: 1px; stroke-linecap: round; stroke-dasharray: 10000, 1;"></path></marker><marker id="knowledge-requirement-end" viewBox="0 0 20 20" refX="11" refY="10" markerWidth="16" markerHeight="16" orient="auto"><path d="M 1 3 L 11 10 L 1 17" style="stroke-width: 2px; stroke-linecap: round; stroke-dasharray: 10000, 1; fill: none; stroke: black;"></path></marker><marker id="authority-requirement-end" viewBox="0 0 20 20" refX="3" refY="3" markerWidth="18" markerHeight="18" orient="auto"><circle cx="3" cy="3" r="3" style="stroke-width: 1px; stroke-linecap: round; stroke-dasharray: 10000, 1;"></circle></marker></defs><g class="djs-group"><g class="djs-element djs-shape" data-element-id="BusinessKnowledgeModel_130xkhq" style="display: block;" transform="matrix(1 0 0 1 711 88)"><g class="djs-visual"><path d="m 0,13.799999999999999 l 14.904000000000002,-13.493333333333332 l 117.936,0 l 0,30.46222222222222 l -14.904000000000002,13.493333333333332 l -117.828,0z" style="fill: white; stroke-width: 2px; stroke: black;"/><text class="djs-label" style="font-family: Arial, sans-serif; font-size: 12px;"><tspan x="48.6640625" y="12.5">Interne </tspan><tspan x="6.9765625" y="26.5">Verrechnungsvorschrif</tspan><tspan x="59.5" y="40.5">ten</tspan></text></g><rect x="0" y="0" width="135" height="46" class="djs-hit" style="fill: none; stroke-opacity: 0; stroke: white; stroke-width: 15px;"/><rect x="-6" y="-6" width="147" height="58" class="djs-outline" style="fill: none;"/></g></g><g class="djs-group"><g class="djs-element djs-shape" data-element-id="KnowledgeSource_1t8xtkw" style="display: block;" transform="matrix(1 0 0 1 511 81)"><g class="djs-visual"><path d="m 0,4.725 l 0,53.598461538461535 c 30.4258,19.093846153846155 49.416399999999996,-4.070769230769231 68.6112,-6.493846153846154 c 12.456199999999997,-2.229230769230769 20.215799999999998,1.550769230769231 31.4468,6.009230769230769 l 0,-52.92z" style="fill: white; stroke-width: 2px; stroke: black;"/><text class="djs-label" style="font-family: Arial, sans-serif; font-size: 12px;"><tspan x="5.484375" y="28">Risikobewertung</tspan><tspan x="7.8125" y="42">ยง 15 Bewertung</tspan></text></g><rect x="0" y="0" width="100" height="63" class="djs-hit" style="fill: none; stroke-opacity: 0; stroke: white; stroke-width: 15px;"/><rect x="-6" y="-6" width="112" height="75" class="djs-outline" style="fill: none;"/></g></g><g class="djs-group"><g class="djs-element djs-shape" data-element-id="InputData_0hoow8a" style="display: block;" transform="matrix(1 0 0 1 414 338)"><g class="djs-visual"><rect x="0" y="0" width="125" height="45" rx="22" ry="22" style="stroke: black; stroke-width: 2px; fill: white;"/><text class="djs-label" style="font-family: Arial, sans-serif; font-size: 12px;"><tspan x="36" y="26">risikoAuto</tspan></text></g><rect x="0" y="0" width="125" height="45" class="djs-hit" style="fill: none; stroke-opacity: 0; stroke: white; stroke-width: 15px;"/><rect x="-6" y="-6" width="137" height="57" class="djs-outline" style="fill: none;"/></g></g><g class="djs-group"><g class="djs-element djs-shape" data-element-id="InputData_1ks04fa" style="display: block;" transform="matrix(1 0 0 1 122 446)"><g class="djs-visual"><rect x="0" y="0" width="125" height="45" rx="22" ry="22" style="stroke: black; stroke-width: 2px; fill: white;"/><text class="djs-label" style="font-family: Arial, sans-serif; font-size: 12px;"><tspan x="8.3203125" y="26">gesamtRisikoFahrer</tspan></text></g><rect x="0" y="0" width="125" height="45" class="djs-hit" style="fill: none; stroke-opacity: 0; stroke: white; stroke-width: 15px;"/><rect x="-6" y="-6" width="137" height="57" class="djs-outline" style="fill: none;"/></g></g><g class="djs-group"><g class="djs-element djs-shape" data-element-id="Risikobewertung" style="display: block;" transform="matrix(1 0 0 1 474 198)"><g class="djs-visual"><rect x="0" y="0" width="180" height="80" rx="0" ry="0" style="stroke: black; stroke-width: 2px; fill: white;"/><text class="djs-label" style="font-family: Arial, sans-serif; font-size: 12px;"><tspan x="45.484375" y="43.5">Risikobewertung</tspan></text></g><rect x="0" y="0" width="180" height="80" class="djs-hit" style="fill: none; stroke-opacity: 0; stroke: white; stroke-width: 15px;"/><rect x="-6" y="-6" width="192" height="92" class="djs-outline" style="fill: none;"/></g></g><g class="djs-group"><g class="djs-element djs-shape" data-element-id="Decision_1lhve01" style="display: block;" transform="matrix(1 0 0 1 186 311)"><g class="djs-visual"><rect x="0" y="0" width="180" height="80" rx="0" ry="0" style="stroke: black; stroke-width: 2px; fill: white;"/><text class="djs-label" style="font-family: Arial, sans-serif; font-size: 12px;"><tspan x="45.15625" y="43.5">Risikokalkulation</tspan></text></g><rect x="0" y="0" width="180" height="80" class="djs-hit" style="fill: none; stroke-opacity: 0; stroke: white; stroke-width: 15px;"/><rect x="-6" y="-6" width="192" height="92" class="djs-outline" style="fill: none;"/></g></g><g class="djs-group"><g class="djs-element djs-shape hover" data-element-id="OutputslisteID" style="display: block;" transform="matrix(1 0 0 1 809 305)"><g class="djs-visual"><rect x="0" y="0" width="180" height="80" rx="0" ry="0" style="stroke: black; stroke-width: 2px; fill: white;"/><text class="djs-label" style="font-family: Arial, sans-serif; font-size: 12px;"><tspan x="58.15625" y="43.5">Outputsliste</tspan></text></g><rect x="0" y="0" width="180" height="80" class="djs-hit" style="fill: none; stroke-opacity: 0; stroke: white; stroke-width: 15px;"/><rect x="-6" y="-6" width="192" height="92" class="djs-outline" style="fill: none;"/></g></g><g class="djs-group"><g class="djs-element djs-connection" data-element-id="connection_24" style="display: block;"><g class="djs-visual"><polyline points="611,111 711,111 " style="fill: none; stroke: black; stroke-width: 1.5px; stroke-dasharray: 5; stroke-linecap: round; stroke-linejoin: round; marker-end: url('#authority-requirement-end');"/></g><polyline points="611,111 711,111 " class="djs-hit" style="fill: none; stroke-opacity: 0; stroke: white; stroke-width: 15px;"/><rect x="605" y="105" width="112" height="12" class="djs-outline" style="fill: none;"/></g></g><g class="djs-group"><g class="djs-element djs-connection" data-element-id="connection_25" style="display: block;"><g class="djs-visual"><polyline points="276,308 468,238 " style="fill: none; stroke: black; stroke-width: 1px; stroke-linecap: round; stroke-linejoin: round; marker-end: url('#information-requirement-end');"/></g><polyline points="276,308 468,238 " class="djs-hit" style="fill: none; stroke-opacity: 0; stroke: white; stroke-width: 15px;"/><rect x="270" y="232" width="204" height="82" class="djs-outline" style="fill: none;"/></g></g><g class="djs-group"><g class="djs-element djs-connection" data-element-id="connection_26" style="display: block;"><g class="djs-visual"><polyline points="562,144 563,198 " style="fill: none; stroke: black; stroke-width: 1.5px; stroke-dasharray: 5; stroke-linecap: round; stroke-linejoin: round; marker-end: url('#authority-requirement-end');"/></g><polyline points="562,144 563,198 " class="djs-hit" style="fill: none; stroke-opacity: 0; stroke: white; stroke-width: 15px;"/><rect x="556" y="138" width="13" height="66" class="djs-outline" style="fill: none;"/></g></g><g class="djs-group"><g class="djs-element djs-connection" data-element-id="connection_27" style="display: block;"><g class="djs-visual"><polyline points="201,446 238,391 " style="fill: none; stroke: black; stroke-width: 1px; stroke-linecap: round; stroke-linejoin: round; marker-end: url('#information-requirement-end');"/></g><polyline points="201,446 238,391 " class="djs-hit" style="fill: none; stroke-opacity: 0; stroke: white; stroke-width: 15px;"/><rect x="195" y="385" width="49" height="67" class="djs-outline" style="fill: none;"/></g></g><g class="djs-group"><g class="djs-element djs-connection" data-element-id="connection_28" style="display: block;"><g class="djs-visual"><polyline points="414,364 366,366 " style="fill: none; stroke: black; stroke-width: 1px; stroke-linecap: round; stroke-linejoin: round; marker-end: url('#information-requirement-end');"/></g><polyline points="414,364 366,366 " class="djs-hit" style="fill: none; stroke-opacity: 0; stroke: white; stroke-width: 15px;"/><rect x="360" y="358" width="60" height="14" class="djs-outline" style="fill: none;"/></g></g><g class="djs-group"><g class="djs-element djs-connection" data-element-id="connection_29" style="display: block;"><g class="djs-visual"><polyline points="655,238 899,302 " style="fill: none; stroke: black; stroke-width: 1px; stroke-linecap: round; stroke-linejoin: round; marker-end: url('#information-requirement-end');"/></g><polyline points="655,238 899,302 " class="djs-hit" style="fill: none; stroke-opacity: 0; stroke: white; stroke-width: 15px;"/><rect x="649" y="232" width="256" height="76" class="djs-outline" style="fill: none;"/></g></g></svg>