<?xml version="1.0" encoding="utf-8"?>
<!-- created with dmn-js / http://bpmn.io -->
<!DOCTYPE svg PUBLIC "-//W3C//DTD SVG 1.1//EN" "http://www.w3.org/Graphics/SVG/1.1/DTD/svg11.dtd">
<svg xmlns="http://www.w3.org/2000/svg" xmlns:xlink="http://www.w3.org/1999/xlink" width="475" height="184" viewBox="259 304 475 184" version="1.1"><defs><marker id="association-start" viewBox="0 0 20 20" refX="1" refY="10" markerWidth="10" markerHeight="10" orient="auto"><path d="M 11 5 L 1 10 L 11 15" style="stroke-width: 1.5px; stroke-linecap: round; stroke-dasharray: 10000, 1; fill: none; stroke: black;"></path></marker><marker id="association-end" viewBox="0 0 20 20" refX="12" refY="10" markerWidth="10" markerHeight="10" orient="auto"><path d="M 1 5 L 11 10 L 1 15" style="stroke-width: 1.5px; stroke-linecap: round; stroke-dasharray: 10000, 1; fill: none; stroke: black;"></path></marker><marker id="information-requirement-end" viewBox="0 0 20 20" refX="11" refY="10" markerWidth="20" markerHeight="20" orient="auto"><path d="M 1 5 L 11 10 L 1 15 Z" style="stroke-width: 1px; stroke-linecap: round; stroke-dasharray: 10000, 1;"></path></marker><marker id="knowledge-requirement-end" viewBox="0 0 20 20" refX="11" refY="10" markerWidth="16" markerHeight="16" orient="auto"><path d="M 1 3 L 11 10 L 1 17" style="stroke-width: 2px; stroke-linecap: round; stroke-dasharray: 10000, 1; fill: none; stroke: black;"></path></marker><marker id="authority-requirement-end" viewBox="0 0 20 20" refX="3" refY="3" markerWidth="18" markerHeight="18" orient="auto"><circle cx="3" cy="3" r="3" style="stroke-width: 1px; stroke-linecap: round; stroke-dasharray: 10000, 1;"></circle></marker></defs><g class="djs-group"><g class="djs-element djs-shape" data-element-id="InputData_0hoow8a" style="display: block;" transform="matrix(1 0 0 1 420 436)"><g class="djs-visual"><rect x="0" y="0" width="125" height="45" rx="22" ry="22" style="stroke: black; stroke-width: 2px; fill: white;"/><text class="djs-label" style="font-family: Arial, sans-serif; font-size: 12px;"><tspan x="54.5" y="26">PS</tspan></text></g><rect x="0" y="0" width="125" height="45" class="djs-hit" style="fill: none; stroke-opacity: 0; stroke: white; stroke-width: 15px;"/><rect x="-6" y="-6" width="137" height="57" class="djs-outline" style="fill: none;"/></g></g><g class="djs-group"><g class="djs-element djs-shape" data-element-id="InputData_1ks04fa" style="display: block;" transform="matrix(1 0 0 1 603 437)"><g class="djs-visual"><rect x="0" y="0" width="125" height="45" rx="22" ry="22" style="stroke: black; stroke-width: 2px; fill: white;"/><text class="djs-label" style="font-family: Arial, sans-serif; font-size: 12px;"><tspan x="45.65625" y="26">Länge</tspan></text></g><rect x="0" y="0" width="125" height="45" class="djs-hit" style="fill: none; stroke-opacity: 0; stroke: white; stroke-width: 15px;"/><rect x="-6" y="-6" width="137" height="57" class="djs-outline" style="fill: none;"/></g></g><g class="djs-group"><g class="djs-element djs-shape" data-element-id="risikobewertungAuto" style="display: block;" transform="matrix(1 0 0 1 479 310)"><g class="djs-visual"><rect x="0" y="0" width="180" height="80" rx="0" ry="0" style="stroke: black; stroke-width: 2px; fill: white;"/><text class="djs-label" style="font-family: Arial, sans-serif; font-size: 12px;"><tspan x="78" y="43.5">Auto</tspan></text></g><rect x="0" y="0" width="180" height="80" class="djs-hit" style="fill: none; stroke-opacity: 0; stroke: white; stroke-width: 15px;"/><rect x="-6" y="-6" width="192" height="92" class="djs-outline" style="fill: none;"/></g></g><g class="djs-group"><g class="djs-element djs-shape" data-element-id="InputData_1vux0ya" style="display: block;" transform="matrix(1 0 0 1 265 325)"><g class="djs-visual"><rect x="0" y="0" width="125" height="45" rx="22" ry="22" style="stroke: black; stroke-width: 2px; fill: white;"/><text class="djs-label" style="font-family: Arial, sans-serif; font-size: 12px;"><tspan x="52.671875" y="26">Typ</tspan></text></g><rect x="0" y="0" width="125" height="45" class="djs-hit" style="fill: none; stroke-opacity: 0; stroke: white; stroke-width: 15px;"/><rect x="-6" y="-6" width="137" height="57" class="djs-outline" style="fill: none;"/></g></g><g class="djs-group"><g class="djs-element djs-connection" data-element-id="connection_18" style="display: block;"><g class="djs-visual"><polyline points="665,437 626,391 " style="fill: none; stroke: black; stroke-width: 1px; stroke-linecap: round; stroke-linejoin: round; marker-end: url('#information-requirement-end');"/></g><polyline points="665,437 626,391 " class="djs-hit" style="fill: none; stroke-opacity: 0; stroke: white; stroke-width: 15px;"/><rect x="620" y="385" width="51" height="58" class="djs-outline" style="fill: none;"/></g></g><g class="djs-group"><g class="djs-element djs-connection" data-element-id="connection_19" style="display: block;"><g class="djs-visual"><polyline points="499,436 527,393 " style="fill: none; stroke: black; stroke-width: 1px; stroke-linecap: round; stroke-linejoin: round; marker-end: url('#information-requirement-end');"/></g><polyline points="499,436 527,393 " class="djs-hit" style="fill: none; stroke-opacity: 0; stroke: white; stroke-width: 15px;"/><rect x="493" y="387" width="40" height="55" class="djs-outline" style="fill: none;"/></g></g><g class="djs-group"><g class="djs-element djs-connection" data-element-id="connection_20" style="display: block;"><g class="djs-visual"><polyline points="390,347 479,345 " style="fill: none; stroke: black; stroke-width: 1px; stroke-linecap: round; stroke-linejoin: round; marker-end: url('#information-requirement-end');"/></g><polyline points="390,347 479,345 " class="djs-hit" style="fill: none; stroke-opacity: 0; stroke: white; stroke-width: 15px;"/><rect x="384" y="339" width="101" height="14" class="djs-outline" style="fill: none;"/></g></g></svg>